<svg viewBox="0 0 2199.858 1668.536" xmlns="http://www.w3.org/2000/svg">
  <path fill="currentColor" fill-rule="evenodd" d="M1720.317,112.904c86.074-47.212,179.132-75.08,282.743-78.528c67.292-2.24,118.247,0.188,144.513,52.772 c12.551,25.127,8.576,58.552-4.036,84.006c-20.773,41.928-24.585,65.192-51.256,86.024c-96.48,75.362-70.159,66.87-142.666,205.536 c-99.904,191.04-29.726,235.019-126.497,349.391c-14.222,16.809-27.441,47.957-84.356,82.183 c-11.315,6.804-27.73,8.189-37.051,12.154c-12.016,5.111-17.939,21.49,1.197,37.324c91.321,75.566,139.573,78.716,155.54,120.305 c11.797,30.73-2.182,28.028,5.108,79.696c0,0,10.991,101.534,10.991,101.535c1.483,13.359,5.748,17.613-1.68,29.187 c-28.654,44.649-28.402,72.498-29.081,74.304c-12.982,34.537,18.532,46.86-5.226,65.692 c-15.216,12.059-57.083,31.41-100.661,103.731c-3.997,6.634-21.131,39.641-21.225,48.6c-0.407,38.8-63.396,12.213-123.982,60.476 c-30.786,24.515-74.246-30.222-135.501,3.281c-14.159,7.744-22.774-4.498-37.37-14.541c-75.596-52.016-80.754-38.387-98.842-61.762 c-137.675-177.92-174.454-303.688-199.022-296.458c-14.321,4.215-21.282,552.178-72.706,98.325 c-10.818-95.482-10.67-74.847-9.909-86.297c0.615-9.251-9.596-13.152-16.023-6.52c0,0-59.739,117.485-191.658,288.93 c-14.384,18.693-43.704,22.656-88.531,49.833c-19.391,11.756-14.173,12.143-27.047,19.65 c-29.216,17.034-43.962-35.493-131.492,0.936c-6.041,2.514-12.682,0.51-28.735-10.986 c-59.398-42.538-108.497-23.559-117.748-51.452c-3.935-11.863-13.477-47.744-32.351-68.81 c-10.306-11.502-12.411-29.492-61.312-71.862c-23.892-20.702-38.017-26.703-34.045-43.034 c18.316-75.297-29.345-113.427-23.599-139.787c3.608-16.548,2.937-32.857,3.403-35.699 c26.506-161.934-2.158-108.886,28.794-165.912c6.731-12.399,116.408-90.558,128.149-102.413 c13.937-14.072,22.1-10.536,17.499-32.556c-3.036-14.529-20.246-7.348-40.788-18.696 c-55.808-30.832-135.532-139.894-132.762-213.168c0.588-15.548-32.606-137.027-35.019-154.607 c-1.981-14.434-19.863-22.709-31.451-57.68c-5.091-15.363-48.26-106.054-57.624-124.464 c-13.748-27.029-50.954-59.159-74.804-77.698c-2.712-2.108-62.584-97.68-43.654-147.498c13.115-34.515,33.923-62.024,70.718-65.041 c127.393-10.443,236.292,15.884,344.967,79.045c254.974,148.19,556.993,581.53,557.679,626.479 c0.066,4.354,7.424,12.137,13.071,5.872c4.22-4.682,4.845-10.388,3.052-15.726c-4.51-13.429-6.215-27.56-10.548-40.957 c-66.374-205.188-116.341-272.531-171.951-333.919c-9.459-10.442-22.807-14.129-31.481-36.154 c-9.436-23.963,28.682-46.44,52.173-16.124c87.502,112.928,156.084,266.917,171.449,340.749c1.079,5.183,7.212,16.94,17.928,11.882 c11.816-5.578,20.037-0.288,24.542,1.113c23.35,7.259,16.447-35.622,31.326-87.152c27.919-96.7,45.177-150.266,108.662-262.261 c12.19-21.504,29.624-24.653,40.283-19.328c71.105,35.522-63.915,36.789-131,363.162c-12.936,62.932-29.551,74.833-26.481,89.844 c1.301,6.365,14.839,11.449,23.938-1.785c12.384-18.012,23.116-37.042,34.119-55.885 C1318.727,437.145,1576.762,191.646,1720.317,112.904z M1462.033,439.614c-5.132,7.411,3.122,23.405,20.345,7.531 c18.026-16.614,36.822-32.193,58.158-44.534c216.748-125.372,219.334,91.55,136.311,83.909 c-22.798-2.098-24.505-27.737-12.341-37.794c16.708-13.814,25.333-18.523,15.469-33.867c-10.746-16.717-37.579,2.197-43.949,11.198 c-34.496,48.748,3.58,103.38,65.39,90.417c20.677-4.336,85.572-77.296,24.926-148.959c-19.397-22.921-36.812-23.075-51.576-30.315 c-12.346-6.055-1.751-19.584,2.851-22.547c42.011-27.047,81.567-57.988,126.828-79.883c2.391-1.157,4.739-2.447,6.966-3.892 c87.926-57.083,175.341,41.841,113.692,118.169c-9.477,11.733-36.816,33.673-61.37,29.96c-39.343-5.949-27.788-56.626,5.673-56.221 c26.589,0.321,24.962-51.239-16.137-40.679c-45.61,11.719-66.695,65.62-26.12,110.725c70.919,78.836,218.724-99.069,112.698-200.44 c-63.196-60.389-167.826-3.044-227.694,32.322c-65.588,38.745-134.389,83.769-186.37,140.16c-2.014,2.184-3.999,4.394-5.919,6.661 C1501.342,393.397,1482.531,410.013,1462.033,439.614z M490.911,315.808c12.03,8.831,11.403,21.402-0.695,23.776 c-132.937,26.091-69.156,216.186,26.93,155.525c11.876-7.498,12.857-16.19,18.45-29.721c15.691-37.963-30.557-73.615-45.048-65.673 c-15.263,8.365-18.233,28.628,0.587,35.14c33.917,11.736,1.888,79.848-47.281,13.542c-32.485-43.808,20.546-141.259,164.871-59.249 c48.456,27.534,78.762,57.718,79.022,57.881c6.717,4.194,22.429-2.296,13.517-14.398 C599.977,295.069,437.427,211.664,417.372,198.067c-10.172-6.897-51.482-23.522-106.008-29.616 c-57.655-6.441-103.982,30.985-108.698,81.851c-4.147,44.731,14.648,98.081,32.834,117.9 c85.236,92.89,171.404-32.212,102.252-82.672c-22.937-16.737-29.412-9.304-35.768-8.023c-25.376,5.125-17.888,39.797,0.224,37.952 c20.652-2.104,30.877,21.51,26.658,35.953c-10.164,34.795-56.528,21.39-77.91-10.475c-10.139-15.11-17.373-22.787-18.725-31.3 c-12.107-76.249,55.583-122.155,126.401-83.003C422.453,261.916,477.186,305.732,490.911,315.808z M1268.283,943.798 c-7.282,1.905-15.112,17.448-0.171,29.979c87.603,73.476,182.108,111.309,175.593,176.715 c-4.289,43.065-64.729,50.235-79.333,6.922c-3.978-11.8,7.626-21.736,18-17.418c32.987,13.732,19.935-20.248,7.533-33.135 c-16.164-16.799-67.705-26.64-66.151,35.845c1,40.326,26.987,72.233,64.246,93.015c78.262,43.651,161.036-63.846,78.668-180.501 C1407.939,972.045,1305.159,934.149,1268.283,943.798z M795.114,1194.223c48.754-50.039,27.907-113.001-2.273-110.981 c-65.769,4.401-57.885,53.142-37.318,45.589c22.579-8.292,32.509,13.734,19.356,26.328c-42.793,40.974-90.039-6.106-69.533-47.848 c21.311-43.38,10.196-24.657,81.292-77.599c53.842-40.093,106.882-61.27,108.05-73.899c0.742-8.021,1.548-19.346-17.806-18.651 c-114.306,4.104-292.358,128.529-214.883,259.522C693.379,1249.738,757.863,1232.455,795.114,1194.223z M1107.454,1068.517 c-1.837-11.632,2.861-18.007,9.041-27.912c8.539-13.685-0.394-22.587-8.348-35.255c-6.078-9.681,1.727-14.922,12.088-24.202 c2.693-2.412,4.19-3.577,7.164-28.066c1.743-14.349-8.375-19.991-19.938-23.049c-8.699-2.301-10.976-10.366-4.684-16.921 c2.01-2.094,4.393-3.835,6.634-5.703c32.812-27.339,7.516-68.529-27.806-72.809c-11.369-1.378-31.189-3.503-41.88-1.021 c-12.7,2.948,2.031,20.878,11.87,27.894c10.484,7.476,16.631,25.54,6.747,34.568c-15.75,14.386-25.215,8.635-25.353,28.279 c-0.081,11.555,13.47,15.735,25.012,16.923c16.183,1.666,20.364,20.858,7.997,29.685c-6.106,4.358-13.096,7.071-19.749,10.377 c-31.844,15.826,22.273,39.108,6.866,56.5c-0.906,1.023-23.073,17.339-10.425,33.858 C1054.684,1087.328,1117.275,1130.684,1107.454,1068.517z M1792.822,1225.812c31.707,4.383,35.328-78.602-2.174-56.132 C1765.145,1184.959,1771.29,1222.835,1792.822,1225.812z M1799.709,757.907c31.713-33.09-30.499-58.093-43.683-5.485 C1749.759,777.432,1789.025,782.171,1799.709,757.907z M1796.404,1255.678c-14.508-4.105-29.97,8.952-34.926,18.184 c-13.639,25.407,5.838,38.567,21.197,31.6C1803.706,1295.923,1819.803,1262.3,1796.404,1255.678z M1833.69,678.87 c6.611-15.614,10.355-13.661,7.952-19.758c-7.384-18.732-10.161-15.326-15.336-18.488c-28.872-17.643-42.57,51.036-17.517,50.686 C1818.847,691.17,1827.193,686.956,1833.69,678.87z M1780.054,1136.694c6.172,3.862,15.298,2.767,22.662-14.209 c14.688-33.862-25.296-59.143-38.09-20.185c-3.62,11.023,1.474,20.109,6.585,29.14 C1772.285,1133.339,1777.563,1135.135,1780.054,1136.694z M1718.169,851.275c18.12,1.293,23.313-18.969,26.785-26.185 c7.318-15.209-7.33-29.938-14.974-27.24C1692.086,811.227,1692.638,849.453,1718.169,851.275z M1854.447,583.682 c5.018-10.051,11.538-18.942,8.188-30.943c-2.519-9.024-6.438-12.864-15.871-13.528c-24.552-1.729-42.492,47.852-10.354,53.057 C1844.596,593.593,1849.661,588.401,1854.447,583.682z M1722.401,1384.734c1.914,29.852,37.894,18.198,49.734-8.31 c5.236-11.723-2.782-23.212-15.65-22.022C1732.213,1356.647,1721.956,1377.776,1722.401,1384.734z M402.668,730.146 c-6.601-16.383-37.316-28.615-39.364-8.831C357.8,774.505,420.025,773.219,402.668,730.146z M1654.267,1450.185 c-1.111,8.274,10.63,21.333,22.542,15.103c13.858-7.248,24.923-10.282,28.592-26.079 C1710.021,1419.314,1659.337,1412.396,1654.267,1450.185z M1595.714,1496.795c-42.103,10.922-17.21,55.512,29.138,28.204 C1640.209,1515.95,1619.545,1490.612,1595.714,1496.795z M384.256,1110.362c12.365-15.583,8.448-41.359-8.669-42.006 c-33.879-1.28-26.718,61.29-2.954,52.243C378.148,1118.5,382.244,1115.132,384.256,1110.362z M341.355,1162.711 c-11.463,59.785,58.079,52.413,29.592-5.267C368.176,1151.833,345.196,1142.68,341.355,1162.711z M330.974,642.48 c6.751,32.293,10.058,38.146,19.071,39.001c32.817,3.114,18.626-51.851,0.797-53.212 C333.261,626.927,330.41,639.782,330.974,642.48z M352.282,1238.292c-8.167,6.123-10.225,28.224,11.04,42.311 c11.05,7.32,25.331,0.527,25.809-12.006C390.112,1242.882,366.394,1227.713,352.282,1238.292z M637.588,1537.064 c51.864,6.037,44.45-21.694,37.387-27.022c-17.033-12.851-46.237-10.786-49.436,10.489 C623.858,1531.708,635.787,1536.855,637.588,1537.064z M327.486,530.452c-17.91-9.906-29.324,25.086-7.076,47.932 C341.26,599.794,362.098,549.596,327.486,530.452z M392.992,1375.875c4.318,3.316,8.87,6.465,14.033,4.787 c33.615-10.926-3.177-53.415-18.103-47.98c-7.101,2.587-14.003,17.456-10.569,24.438 C381.911,1364.357,384.918,1372.407,392.992,1375.875z M475.56,1445.081c7.58,0.995,22.171-13.191,8.26-27.284 C437.089,1370.46,420.648,1437.879,475.56,1445.081z M550.643,1517.841c19.405,0.122,22.256-16.865,12.794-26.798 c-17.196-18.054-52.366-8.602-47.192,5.253C521.376,1510.03,537.633,1517.758,550.643,1517.841z M454.287,830.614 c16.64-25.09-21.345-54.374-32.759-33.579C407.324,822.912,446.86,851.542,454.287,830.614z M1500.35,1515.184 c-2.521-1.572-5.132-1.922-7.57-0.595c-6.322,3.441-13.464,4.952-19.615,8.833c-28.961,18.272,46.54,40.228,45.774,10.808 C1518.635,1522.557,1515.188,1524.433,1500.35,1515.184z M1861.216,468.753c-5.353,4.33-14.309,27.989,0.718,35.532 c6.147,3.085,12.988,2.154,18.341-2.607C1909.729,475.49,1881.306,452.502,1861.216,468.753z M1744.259,1018.879 c-7.771-3.264-9.801,0.518-14.436,0.95c-33.067,3.081,10.492,51.502,28.486,27.02 C1769.455,1031.682,1758.36,1024.8,1744.259,1018.879z M1056.371,711.524c-1.692,25.603,21.488,28.103,31.771,13.976 c15.011-20.623,4.022-26.063-10.227-30.186C1066.309,691.956,1057.029,701.573,1056.371,711.524z M291.395,493.733 c5.269,6.828,24.951,3.65,21.276-10.286c-1.427-5.414-2.275-10.902-3.16-16.392C305.779,443.912,260.554,453.762,291.395,493.733z M767.746,1510.55c-3.021-1.964-5.373-4.085-8.53-3.294c-13.498,3.38-30.536,9.731-25.333,23.854 c8.936,24.25,41.55-1.18,40.501-7.078C773.43,1518.658,773.811,1512.567,767.746,1510.55z M1387.241,1515.171 c-12.608,2.068-14.472,17.445-4.091,25.267c23.619,17.799,42.326,0.405,30.884-13.384 C1412.434,1525.126,1398.045,1513.4,1387.241,1515.171z M435.239,1013.404c2.279-10.167-16.107-14.857-23.111-10.753 C371.408,1026.514,425.104,1058.629,435.239,1013.404z"/>
</svg>